<?xml version="1.0" standalone="no"?>
<!DOCTYPE svg PUBLIC "-//W3C//DTD SVG 20010904//EN"
 "http://www.w3.org/TR/2001/REC-SVG-20010904/DTD/svg10.dtd">
<svg version="1.0" xmlns="http://www.w3.org/2000/svg"
 width="40.000000pt" height="40.000000pt" viewBox="0 0 40.000000 40.000000"
 preserveAspectRatio="xMidYMid meet">
<metadata>
Created by potrace 1.16, written by Peter Selinger 2001-2019
</metadata>
<g transform="translate(0.000000,40.000000) scale(0.062500,-0.062500)"
fill="#CFCFCF" stroke="none">
<path d="M232 534 c-31 -15 -63 -41 -79 -65 -27 -37 -43 -49 -43 -30 0 13 -27
21 -45 15 -23 -9 -18 -38 15 -104 35 -69 46 -72 113 -35 55 31 71 50 63 71 -5
13 -15 15 -42 11 -35 -6 -35 -6 -21 16 52 79 149 107 231 67 52 -25 78 -57 96
-118 23 -76 -18 -165 -95 -202 -77 -37 -155 -21 -213 44 -23 26 -39 36 -55 34
-56 -8 -9 -90 76 -133 59 -29 155 -34 210 -12 194 82 194 372 0 454 -55 22
-151 17 -211 -13z"/>
<path d="M327 453 c-4 -3 -7 -41 -7 -83 l0 -77 45 -42 c81 -74 133 -32 55 44
-36 35 -40 44 -40 90 0 49 -12 75 -35 75 -7 0 -15 -3 -18 -7z"/>
</g>
</svg>
